<svg version="1.1" viewBox="0.0 0.0 357.5721784776903 326.3595800524934" fill="none" stroke="none" stroke-linecap="square" stroke-miterlimit="10" xmlns:xlink="http://www.w3.org/1999/xlink" xmlns="http://www.w3.org/2000/svg"><clipPath id="p.0"><path d="m0 0l357.57217 0l0 326.3596l-357.57217 0l0 -326.3596z" clip-rule="nonzero"/></clipPath><g clip-path="url(#p.0)"><path fill="#000000" fill-opacity="0.0" d="m0 0l357.57217 0l0 326.3596l-357.57217 0z" fill-rule="evenodd"/><path fill="#000000" d="m84.02887 165.3189l0 0c0 -85.251884 42.423668 -154.3622 94.755905 -154.3622l0 0c25.130829 0 49.23236 16.263115 67.00255 45.211643c17.770172 28.948532 27.753357 68.21116 27.753357 109.15056l0 0c0 85.25189 -42.42366 154.3622 -94.755905 154.3622l0 0c-52.332237 0 -94.755905 -69.110306 -94.755905 -154.3622z" fill-rule="evenodd"/><path fill="#000000" d="m7.7454066 192.0643l0 0c0 -50.010025 76.576935 -90.55118 171.03937 -90.55118l0 0c94.46245 0 171.03938 40.541153 171.03938 90.55118l0 0c0 50.01004 -76.576935 90.55118 -171.03938 90.55118l0 0c-94.46243 0 -171.03937 -40.541138 -171.03937 -90.55118z" fill-rule="evenodd"/><path fill="#000000" fill-opacity="0.0" d="m103.50787 18.682415l90.519684 0l0 277.95276l-90.519684 0z" fill-rule="evenodd"/><path fill="#ffffff" d="m179.2735 235.0449q-17.90625 0 -34.34375 -4.796875q-16.421875 -4.8125 -26.453125 -12.484375l11.734375 -26.03125q9.609375 6.828125 22.71875 11.203125q13.125 4.375 26.5625 4.375q10.234375 0 16.53125 -2.015625q6.296875 -2.03125 9.28125 -5.65625q2.984375 -3.640625 2.984375 -8.328125q0 -5.96875 -4.703125 -9.484375q-4.6875 -3.53125 -12.375 -5.765625q-7.671875 -2.25 -16.953125 -4.265625q-9.265625 -2.03125 -18.546875 -5.015625q-9.28125 -2.984375 -16.96875 -7.671875q-7.671875 -4.703125 -12.484375 -12.375q-4.796875 -7.6875 -4.796875 -19.640633q0 -12.796875 6.9375 -23.34375q6.9375 -10.5625 20.90625 -16.859375q13.96875 -6.296875 35.09375 -6.296875q14.078125 0 27.734375 3.3125q13.65625 3.296875 24.109375 9.921875l-10.671875 26.234375q-10.453125 -5.96875 -20.90625 -8.84375q-10.453125 -2.890625 -20.484375 -2.890625q-10.015625 0 -16.421875 2.34375q-6.390625 2.34375 -9.171875 6.078125q-2.765625 3.734375 -2.765625 8.640625q0 5.7656326 4.6875 9.281258q4.6875 3.515625 12.359375 5.65625q7.6875 2.125 16.96875 4.265625q9.28125 2.125 18.5625 4.90625q9.28125 2.765625 16.953125 7.46875q7.6875 4.6875 12.484375 12.375q4.796875 7.671875 4.796875 19.40625q0 12.59375 -7.046875 23.046875q-7.03125 10.453125 -21.0 16.859375q-13.96875 6.390625 -35.3125 6.390625z" fill-rule="nonzero"/></g></svg>